<?xml version="1.0" encoding="UTF-8"?>
<svg width="258px" height="206px" viewBox="0 0 258 206" version="1.1" xmlns="http://www.w3.org/2000/svg" xmlns:xlink="http://www.w3.org/1999/xlink">
    <!-- Generator: Sketch 52.6 (67491) - http://www.bohemiancoding.com/sketch -->
    <title>Group 27</title>
    <desc>Created with Sketch.</desc>
    <defs>
        <circle id="path-1" cx="103" cy="103" r="103"></circle>
        <filter x="-4.4%" y="-4.4%" width="108.7%" height="108.7%" filterUnits="objectBoundingBox" id="filter-3">
            <feOffset dx="18" dy="18" in="SourceAlpha" result="shadowOffsetInner1"></feOffset>
            <feComposite in="shadowOffsetInner1" in2="SourceAlpha" operator="arithmetic" k2="-1" k3="1" result="shadowInnerInner1"></feComposite>
            <feColorMatrix values="0 0 0 0 0.909803922   0 0 0 0 0.937254902   0 0 0 0 0.988235294  0 0 0 1 0" type="matrix" in="shadowInnerInner1"></feColorMatrix>
        </filter>
        <path d="M89.6161068,137.044892 C61.4813165,145.880959 47.4139213,154.848053 47.4139213,163.946172 C47.4139213,175.019522 47.4139213,193.911565 47.4139213,220.622304 L103.416975,220.622304 L103.416975,127.404541 L89.6161068,127.404541 L89.6161068,137.044892 Z" id="path-4"></path>
        <filter x="-7.1%" y="-4.3%" width="114.3%" height="108.6%" filterUnits="objectBoundingBox" id="filter-5">
            <feOffset dx="0" dy="8" in="SourceAlpha" result="shadowOffsetInner1"></feOffset>
            <feComposite in="shadowOffsetInner1" in2="SourceAlpha" operator="arithmetic" k2="-1" k3="1" result="shadowInnerInner1"></feComposite>
            <feColorMatrix values="0 0 0 0 0.645136   0 0 0 0 0.325210635   0 0 0 0 0.991177721  0 0 0 0.691208107 0" type="matrix" in="shadowInnerInner1"></feColorMatrix>
        </filter>
        <path d="M145.419942,127.377075 L145.419942,137.044892 C117.285152,145.880959 103.217756,154.848053 103.217756,163.946172 C103.217756,175.019522 103.217756,193.911565 103.217756,220.622304 L159.431951,220.622304 L159.431951,127.377075 L145.419942,127.377075 Z" id="path-6"></path>
        <filter x="-7.1%" y="-4.3%" width="114.2%" height="108.6%" filterUnits="objectBoundingBox" id="filter-7">
            <feOffset dx="0" dy="8" in="SourceAlpha" result="shadowOffsetInner1"></feOffset>
            <feComposite in="shadowOffsetInner1" in2="SourceAlpha" operator="arithmetic" k2="-1" k3="1" result="shadowInnerInner1"></feComposite>
            <feColorMatrix values="0 0 0 0 0.645136   0 0 0 0 0.325210635   0 0 0 0 0.991177721  0 0 0 0.691208107 0" type="matrix" in="shadowInnerInner1"></feColorMatrix>
        </filter>
        <path d="M89.2490234,125.749023 C92.8707796,127.42806 97.5374463,128.267578 103.249023,128.267578 C108.960601,128.267578 113.627267,127.42806 117.249023,125.749023 L117.249023,144.858398 L89.2490234,144.858398 L89.2490234,125.749023 Z" id="path-8"></path>
        <filter x="-12.5%" y="-18.3%" width="125.0%" height="136.6%" filterUnits="objectBoundingBox" id="filter-9">
            <feOffset dx="0" dy="7" in="SourceAlpha" result="shadowOffsetInner1"></feOffset>
            <feComposite in="shadowOffsetInner1" in2="SourceAlpha" operator="arithmetic" k2="-1" k3="1" result="shadowInnerInner1"></feComposite>
            <feColorMatrix values="0 0 0 0 0.977758291   0 0 0 0 0.768637426   0 0 0 0 0.682528835  0 0 0 1 0" type="matrix" in="shadowInnerInner1"></feColorMatrix>
        </filter>
        <path d="M70.2985718,74.3187027 C69.0017163,59.1889765 76.2839851,51.6241134 92.1453782,51.6241134 C115.937468,51.6241134 106.888256,51.6241134 117.040378,51.6241134 C123.808459,51.6241134 131.462875,48.5191746 140.003624,42.309297 C142.331829,63.6489008 138.431707,74.3187027 128.303258,74.3187027 C118.17481,74.3187027 98.8399141,74.3187027 70.2985718,74.3187027 Z" id="path-10"></path>
        <filter x="-5.7%" y="-12.5%" width="111.3%" height="125.0%" filterUnits="objectBoundingBox" id="filter-11">
            <feOffset dx="-6" dy="-8" in="SourceAlpha" result="shadowOffsetInner1"></feOffset>
            <feComposite in="shadowOffsetInner1" in2="SourceAlpha" operator="arithmetic" k2="-1" k3="1" result="shadowInnerInner1"></feComposite>
            <feColorMatrix values="0 0 0 0 0.349541737   0 0 0 0 0.320957505   0 0 0 0 0.43529443  0 0 0 0.451907835 0" type="matrix" in="shadowInnerInner1"></feColorMatrix>
        </filter>
    </defs>
    <g id="Page-1" stroke="none" stroke-width="1" fill="none" fill-rule="evenodd">
        <g id="因特驰营销页" transform="translate(-508.000000, -2898.000000)">
            <g id="Group-27" transform="translate(508.000000, 2898.000000)">
                <g id="Group-26" transform="translate(20.672869, 0.000000)">
                    <mask id="mask-2" fill="white">
                        <use xlink:href="#path-1"></use>
                    </mask>
                    <g id="Oval-8">
                        <use fill="#CFDCF9" fill-rule="evenodd" xlink:href="#path-1"></use>
                        <use fill="black" fill-opacity="1" filter="url(#filter-3)" xlink:href="#path-1"></use>
                    </g>
                    <g id="Path-13" mask="url(#mask-2)">
                        <use fill="#9230FC" fill-rule="evenodd" xlink:href="#path-4"></use>
                        <use fill="black" fill-opacity="1" filter="url(#filter-5)" xlink:href="#path-4"></use>
                    </g>
                    <g id="Path-13" mask="url(#mask-2)" transform="translate(131.324854, 173.999689) scale(-1, 1) translate(-131.324854, -173.999689) ">
                        <use fill="#9230FC" fill-rule="evenodd" xlink:href="#path-6"></use>
                        <use fill="black" fill-opacity="1" filter="url(#filter-7)" xlink:href="#path-6"></use>
                    </g>
                    <g id="Rectangle-19" mask="url(#mask-2)">
                        <use fill="#FFCCB7" fill-rule="evenodd" xlink:href="#path-8"></use>
                        <use fill="black" fill-opacity="1" filter="url(#filter-9)" xlink:href="#path-8"></use>
                    </g>
                    <polygon id="Path-16" fill="#FCD660" mask="url(#mask-2)" points="99.1991193 155.125863 95.5126897 201.925451 103.534201 209.615041 111.555713 201.925451 107.438427 155.125863"></polygon>
                    <polygon id="Path-15" fill="#FFCB2B" mask="url(#mask-2)" points="95.9555493 144.89209 110.622817 144.89209 107.4597 155.133301 99.1091138 155.133301"></polygon>
                    <polygon id="Path-14" fill="#B671FF" mask="url(#mask-2)" points="89.2725927 136.89616 96.052229 145.001953 83.9195523 154.854915 83.9195523 139.387859"></polygon>
                    <polygon id="Path-14" fill="#B671FF" mask="url(#mask-2)" transform="translate(116.562418, 145.899219) scale(-1, 1) translate(-116.562418, -145.899219) " points="115.876705 136.919842 122.601171 144.96582 110.523665 154.878596 110.523665 138.813477"></polygon>
                    <path d="M72.2937701,178.193363 L72.2937701,211.345152" id="Path-17" stroke="#8030E4" stroke-width="3.5862069" stroke-linecap="round" stroke-linejoin="round" mask="url(#mask-2)"></path>
                    <path d="M134.352298,178.193363 L134.352298,211.345152" id="Path-17" stroke="#8030E4" stroke-width="3.5862069" stroke-linecap="round" stroke-linejoin="round" mask="url(#mask-2)"></path>
                    <ellipse id="Oval-3" fill="#FFCCB7" mask="url(#mask-2)" cx="70.2654289" cy="99.4095563" rx="7.75731603" ry="7.74061433"></ellipse>
                    <ellipse id="Oval-3" fill="#FFCCB7" mask="url(#mask-2)" cx="136.906663" cy="99.4095563" rx="7.75731603" ry="7.74061433"></ellipse>
                    <path d="M103.234022,130.372014 C121.442073,130.372014 136.202615,116.509649 136.202615,99.4095563 C136.202615,94.8274066 136.202615,85.0820311 136.202615,70.1734298 C121.483215,69.0225426 110.493684,68.447099 103.234022,68.447099 C96.157512,68.447099 85.167981,69.5431821 70.2654289,71.7353482 C70.2654289,85.4306633 70.2654289,94.6553994 70.2654289,99.4095563 C70.2654289,116.509649 85.0259708,130.372014 103.234022,130.372014 Z" id="Combined-Shape" fill="#FCDACC" mask="url(#mask-2)"></path>
                    <path d="M93.7686274,111.054913 C96.2139799,113.428771 99.5528968,114.890785 103.234022,114.890785 C106.912594,114.890785 110.249432,113.430799 112.694327,111.059852" id="Oval-4" stroke="#FFB3A0" stroke-width="4.586207" stroke-linecap="round" stroke-linejoin="round" mask="url(#mask-2)" transform="translate(102.358507, 111.938018) scale(1, -1) translate(-102.358507, -111.938018) "></path>
                    <path d="M70.2654289,71.8339733 L70.2654289,96.7165936 C77.2588816,96.6813173 80.755608,94.491041 80.755608,90.1457645 C80.755608,85.8004879 80.755608,79.6965576 80.755608,71.8339733 L70.2654289,71.8339733 Z" id="Path-11" fill="#605B7B" mask="url(#mask-2)"></path>
                    <path d="M125.770114,69.6289173 L125.770114,96.6236093 C132.763567,96.588333 136.260293,94.3980567 136.260293,90.0527802 C136.260293,85.7075037 136.260293,78.8995494 136.260293,69.6289173 L125.770114,69.6289173 Z" id="Path-11" fill="#605B7B" mask="url(#mask-2)" transform="translate(131.015204, 83.126263) scale(-1, 1) translate(-131.015204, -83.126263) "></path>
                    <g id="Path-12" mask="url(#mask-2)">
                        <use fill="#787089" fill-rule="evenodd" xlink:href="#path-10"></use>
                        <use fill="black" fill-opacity="1" filter="url(#filter-11)" xlink:href="#path-10"></use>
                    </g>
                </g>
                <path d="M216.263833,124.905071 L204.270517,133.955359 C203.923482,134.217235 203.500567,134.358899 203.065811,134.358899 C201.961242,134.358899 201.065811,133.463468 201.065811,132.358899 L201.065811,124.905071 L195.640258,124.905071 C189.012841,124.905071 183.640258,119.532488 183.640258,112.905071 L183.640258,86.5910781 C183.640258,79.9636611 189.012841,74.5910781 195.640258,74.5910781 L245.334761,74.5910781 C251.962178,74.5910781 257.334761,79.9636611 257.334761,86.5910781 L257.334761,112.905071 C257.334761,119.532488 251.962178,124.905071 245.334761,124.905071 L216.263833,124.905071 Z" id="Combined-Shape" fill="#839DFC" transform="translate(220.487509, 105.482371) scale(-1, 1) translate(-220.487509, -105.482371) "></path>
                <path d="M24.8428199,138.134461 L15.6379893,145.080527 C15.2909546,145.342403 14.8680387,145.484067 14.4332834,145.484067 C13.3287139,145.484067 12.4332834,144.588636 12.4332834,143.484067 L12.4332834,138.134461 L10.317738,138.134461 C4.79489046,138.134461 0.317737959,133.657308 0.317737959,128.134461 L0.317737959,113.152416 C0.317737959,107.629569 4.79489046,103.152416 10.317738,103.152416 L41.5556581,103.152416 C47.0785056,103.152416 51.5556581,107.629569 51.5556581,113.152416 L51.5556581,128.134461 C51.5556581,133.657308 47.0785056,138.134461 41.5556581,138.134461 L24.8428199,138.134461 Z" id="Combined-Shape" fill="#B27DFC"></path>
                <path d="M46.6246911,75.609256 L39.8888468,80.6226551 C39.543717,80.8795306 39.1249535,81.0182659 38.6947214,81.0182659 C37.5901519,81.0182659 36.6947214,80.1228354 36.6947214,79.0182659 L36.6947214,75.609256 L32.5007792,75.609256 C29.4627827,75.609256 27,73.1464733 27,70.1084768 L27,53.5007792 C27,50.4627827 29.4627827,48 32.5007792,48 L62.4992208,48 C65.5372173,48 68,50.4627827 68,53.5007792 L68,70.1084768 C68,73.1464733 65.5372173,75.609256 62.4992208,75.609256 L46.6246911,75.609256 Z" id="Combined-Shape" fill="#30E4FC"></path>
                <path d="M10,115.25 L40.1367187,115.25" id="Path-20" stroke="#FFFFFF" stroke-width="3.59" opacity="0.300000012" stroke-linecap="round" stroke-linejoin="round"></path>
                <path d="M9,125.25 L24.5019531,125.25" id="Path-20" stroke="#FFFFFF" stroke-width="3.59" opacity="0.300000012" stroke-linecap="round" stroke-linejoin="round"></path>
                <path d="M38,56.25 L53.5019531,56.25" id="Path-20" stroke="#FFFFFF" stroke-width="3.59" opacity="0.300000012" stroke-linecap="round" stroke-linejoin="round"></path>
                <path d="M38,65.25 L53.5019531,65.25" id="Path-20" stroke="#FFFFFF" stroke-width="3.59" opacity="0.300000012" stroke-linecap="round" stroke-linejoin="round"></path>
                <path d="M201,88.25 L239.964844,88.25" id="Path-20" stroke="#FFFFFF" stroke-width="3.59" opacity="0.300000012" stroke-linecap="round" stroke-linejoin="round"></path>
                <path d="M201,100.25 L239.964844,100.25" id="Path-20" stroke="#FFFFFF" stroke-width="3.59" opacity="0.300000012" stroke-linecap="round" stroke-linejoin="round"></path>
                <path d="M201,112.25 L220.482422,112.25" id="Path-20" stroke="#FFFFFF" stroke-width="3.59" opacity="0.300000012" stroke-linecap="round" stroke-linejoin="round"></path>
            </g>
        </g>
    </g>
</svg>